<?xml version="1.0" standalone="no"?>
<!DOCTYPE svg PUBLIC "-//W3C//DTD SVG 20010904//EN"
 "http://www.w3.org/TR/2001/REC-SVG-20010904/DTD/svg10.dtd">
<svg version="1.0" xmlns="http://www.w3.org/2000/svg"
 width="700.000000pt" height="700.000000pt" viewBox="0 0 700.000000 700.000000"
 preserveAspectRatio="xMidYMid meet">
<metadata>
Created by potrace 1.14, written by Peter Selinger 2001-2017
</metadata>
<g transform="translate(0.000000,700.000000) scale(0.100000,-0.100000)"
fill="#000000" stroke="none">
<path d="M0 3500 l0 -3500 3500 0 3500 0 0 3500 0 3500 -3500 0 -3500 0 0
-3500z m2666 2635 c248 -44 472 -161 641 -338 l90 -94 23 33 c36 54 156 162
238 216 140 91 286 148 468 184 118 24 362 23 493 0 423 -76 749 -322 903
-678 96 -222 364 -1504 448 -2138 11 -85 57 -454 101 -820 77 -634 81 -672 75
-810 -3 -80 -12 -179 -21 -220 -71 -350 -249 -570 -542 -671 -79 -27 -329 -76
-458 -90 -146 -15 -400 -6 -530 20 -327 66 -634 223 -1014 519 -83 64 -190
140 -238 167 -172 98 -396 172 -634 210 -129 21 -502 31 -624 17 -49 -6 -92
-9 -94 -7 -2 2 61 81 140 175 l144 171 120 -6 c302 -13 635 -93 919 -221 191
-86 286 -146 531 -338 528 -415 939 -521 1510 -391 141 32 205 64 281 139 120
120 173 277 181 531 5 153 2 186 -71 780 -42 341 -83 679 -92 750 -24 195 -98
633 -164 965 -70 354 -201 947 -235 1065 -94 323 -343 545 -685 609 -104 20
-307 21 -397 1 -295 -62 -513 -240 -589 -481 -23 -72 -24 -86 -24 -389 l0
-315 -165 0 -165 0 0 293 c0 326 -7 381 -61 490 -87 179 -270 324 -489 387
-106 31 -325 39 -440 16 -285 -58 -506 -234 -587 -467 -19 -56 -27 -107 -35
-218 -15 -217 -4 -979 16 -1181 16 -156 47 -387 62 -457 l7 -33 -212 0 -211 0
0 733 c1 811 9 1051 39 1169 100 389 484 683 964 738 95 11 272 4 383 -15z"/>
</g>
</svg>
